<?xml version="1.0" standalone="no"?>
<!DOCTYPE svg PUBLIC "-//W3C//DTD SVG 20010904//EN"
 "http://www.w3.org/TR/2001/REC-SVG-20010904/DTD/svg10.dtd">
<svg version="1.0" xmlns="http://www.w3.org/2000/svg"
 width="260.000000pt" height="260.000000pt" viewBox="0 0 260.000000 260.000000"
 preserveAspectRatio="xMidYMid meet">
<metadata>
Created by potrace 1.14, written by Peter Selinger 2001-2017
</metadata>
<g transform="translate(0.000000,260.000000) scale(0.100000,-0.100000)"
fill="#000000" stroke="none">
<path d="M502 1438 c-15 -15 -15 -67 0 -178 9 -70 9 -94 -2 -119 -22 -53 -40
-55 -121 -16 -113 54 -169 44 -154 -27 5 -24 39 -65 127 -152 97 -97 116 -121
104 -128 -41 -23 -166 -131 -208 -180 -142 -166 -224 -355 -244 -565 -6 -68
-5 -73 13 -73 18 0 21 11 32 97 61 495 477 844 1091 914 124 14 348 7 468 -15
239 -44 442 -134 604 -268 183 -153 310 -403 334 -655 6 -64 9 -73 26 -73 19
0 20 4 13 78 -16 174 -85 364 -181 498 -52 73 -160 184 -222 226 -23 16 -42
30 -42 32 0 1 51 54 114 117 82 83 116 123 121 147 15 71 -41 81 -154 27 -81
-39 -99 -37 -121 16 -11 25 -11 49 -2 119 22 160 13 200 -42 186 -52 -13 -93
-113 -142 -345 -26 -122 -29 -132 -48 -128 -12 3 -73 19 -136 35 -283 74 -603
67 -903 -20 -59 -17 -109 -29 -111 -27 -1 2 -15 64 -30 137 -37 178 -72 286
-106 322 -29 32 -58 38 -78 18z m67 -76 c34 -68 110 -385 98 -415 -3 -8 -42
-29 -87 -46 l-82 -31 -47 40 c-70 58 -181 178 -181 195 0 22 16 19 102 -22 77
-35 79 -36 112 -21 20 10 40 31 51 54 18 38 18 72 -1 238 -8 67 4 70 35 8z
m1491 -70 c-15 -123 -9 -169 24 -205 39 -43 66 -43 147 -3 40 20 81 36 91 36
18 0 18 -2 2 -32 -17 -32 -159 -177 -202 -206 -21 -14 -28 -12 -107 28 -47 23
-85 43 -85 44 1 23 55 276 70 324 20 69 57 139 67 128 3 -3 0 -54 -7 -114z"/>
<path d="M800 711 c-49 -48 -52 -110 -8 -151 40 -37 99 -18 129 42 26 50 24
84 -6 113 -34 35 -78 33 -115 -4z"/>
<path d="M1685 715 c-39 -38 -30 -103 21 -150 33 -30 73 -32 102 -5 44 41 41
103 -8 151 -37 37 -81 39 -115 4z"/>
<path d="M1262 434 c-12 -8 -22 -24 -22 -34 0 -22 36 -50 65 -50 29 0 65 28
65 50 0 22 -36 50 -65 50 -11 0 -31 -7 -43 -16z m73 -34 c0 -18 -43 -26 -57
-12 -16 16 2 33 30 30 16 -2 27 -9 27 -18z"/>
</g>
</svg>
